<svg width="48px" height="48px" viewBox="0 0 48 48" version="1.1" xmlns="http://www.w3.org/2000/svg" xmlns:xlink="http://www.w3.org/1999/xlink">

<title>682B1247-4DFE-4E5D-AC05-8634BDB82057</title>
<desc>Created with sketchtool.</desc>
<defs>
<linearGradient x1="50%" y1="0%" x2="100%" y2="100%" id="linearGradient-1">
<stop stop-color="#60ACC7" offset="0%"></stop>
<stop stop-color="#549FBA" offset="49.3090679%"></stop>
<stop stop-color="#4A93AE" offset="100%"></stop>
</linearGradient>
<polygon id="path-2" points="0 12.375 4.5 11.8125 6.1875 8.4375 7.875 13.5 11.25 0 14.0625 11.8125 18 12.375 12.9375 12.9375 11.25 5.625 7.875 18 6.1875 11.25 5.0625 12.9375"></polygon>
<path d="M6,0 C9.3125,0 12,2.6875 12,6 C12,7.0625 11.7083333,8.08333333 11.2291667,8.9375 L6.33333333,17.8125 C6.27083333,17.9166667 6.125,18 6,18 C5.85416667,18 5.72916667,17.9166667 5.66666667,17.8125 L0.770833333,8.9375 C0.270833333,8.08333333 0,7.0625 0,6 C0,2.6875 2.6875,0 6,0 Z M6,8.25 C7.25,8.25 8.25,7.25 8.25,6 C8.25,4.75 7.25,3.75 6,3.75 C4.75,3.75 3.75,4.75 3.75,6 C3.75,7.25 4.75,8.25 6,8.25 Z" id="path-3"></path>
<path d="M8,6.85714286 L8,9.6 L12.5371429,9.6 C12.3542857,10.7771429 11.1657143,13.0514286 8,13.0514286 C5.26857143,13.0514286 3.04,10.7885714 3.04,8 C3.04,5.21142857 5.26857143,2.94857143 8,2.94857143 C9.55428571,2.94857143 10.5942857,3.61142857 11.1885714,4.18285714 L13.36,2.09142857 C11.9657143,0.788571429 10.16,0 8,0 C3.57714286,0 0,3.57714286 0,8 C0,12.4228571 3.57714286,16 8,16 C12.6171429,16 15.68,12.7542857 15.68,8.18285714 C15.68,7.65714286 15.6228571,7.25714286 15.5542857,6.85714286 L8,6.85714286 L8,6.85714286 Z" id="path-4"></path>
</defs>
<g id="Demos" stroke="none" stroke-width="1" fill="none" fill-rule="evenodd">
<g id="Tools-Panels" transform="translate(-656.000000, -128.000000)">
<g id="Molecules-/-Page-Header-/-Centred-Graphic" transform="translate(16.000000, 128.000000)">
<g id="Group-5">
<g>
<g id="Rankings-48" transform="translate(640.000000, 0.000000)">
<g id="Atoms-/-Icons-/-Local-SEO-Tools">
<g>
<g id="SEO-Checkup-48" transform="translate(15.000000, 0.000000)">
<g id="Path-35">
<use fill="#FFFFFF" xlink:href="#path-2"></use>
<use fill-opacity="0.7" fill="url(#linearGradient-1)" xlink:href="#path-2"></use>
</g>
</g>
<g id="Citations-48" transform="translate(36.000000, 15.000000)">
<g id="î›-copy-3">
<use fill="#FFFFFF" xlink:href="#path-3"></use>
<use fill-opacity="0.9" fill="url(#linearGradient-1)" xlink:href="#path-3"></use>
</g>
</g>
<g id="Reviews-48" transform="translate(12.000000, 24.000000)" fill="url(#linearGradient-1)">
<g id="Rankings-48">
<path d="M19.5,3.00246167 C19.5,2.44881738 19.9479289,2 20.4986959,2 L23.0013041,2 C23.5528686,2 24,2.43945834 24,3.00246167 L24,24 L19.5,24 L19.5,3.00246167 Z M13,1.00069463 C13,0.448026248 13.4479289,8.8817842e-16 13.9986959,8.8817842e-16 L16.5013041,8.8817842e-16 C17.0528686,8.8817842e-16 17.5,0.44746922 17.5,1.00069463 L17.5,24 L13,24 L13,1.00069463 Z M6.5,7.49101692 C6.5,6.94369339 6.94792891,6.5 7.49869585,6.5 L10.0013041,6.5 C10.5528686,6.5 11,6.95017276 11,7.49101692 L11,24 L6.5,24 L6.5,7.49101692 Z M-3.19744231e-14,13.9955775 C-3.19744231e-14,13.4457352 0.447928905,13 0.99869585,13 L3.50130415,13 C4.05286864,13 4.5,13.444837 4.5,13.9955775 L4.5,24 L-3.19744231e-14,24 L-3.19744231e-14,13.9955775 Z" id="Combined-Shape"></path>
</g>
</g>
<g id="Google-48" transform="translate(0.000000, 16.000000)">
<g id="Shape">
<use fill="#FFFFFF" xlink:href="#path-4"></use>
 <use fill-opacity="0.8" fill="url(#linearGradient-1)" xlink:href="#path-4"></use>
</g>
</g>
</g>
</g>
</g>
</g>
</g>
</g>
</g>
</g>
</svg>