<svg width="80px" height="80px" viewBox="0 0 80 80" version="1.1" xmlns="http://www.w3.org/2000/svg" xmlns:xlink="http://www.w3.org/1999/xlink">
<defs>
<rect id="path-1" x="8" y="0" width="80" height="80"></rect>
</defs>
<g id="Symbols" stroke="none" stroke-width="1" fill="none" fill-rule="evenodd">
<g id="Icons-/-Benefits-LSRC-/-all-search-engines" transform="translate(-8.000000, 0.000000)">
<mask id="mask-2" fill="white">
<use xlink:href="#path-1"></use>
</mask>
<g id="Rectangle-2" fill-rule="nonzero"></g>
<rect id="Rectangle-32-Copy-2" fill="#BABEC3" fill-rule="nonzero" mask="url(#mask-2)" x="8" y="44" width="36" height="36" rx="5"></rect>
<g id="Group" mask="url(#mask-2)" fill-rule="nonzero">
<g transform="translate(51.000000, 39.000000)">
<rect id="Rectangle-32-Copy" fill="#D2D5D8" x="0" y="0" width="36" height="36" rx="5"></rect>
<polygon id="Shape" fill="#FFFFFF" points="17.1691537 12.2296214 19.9693764 18.3898664 24.1060134 20.2885301 9.1825167 28.2555679 15.2974388 22.7249443 15.2974388 6.95623608 9 5 9 28.451559 15.2594655 32.9030067 31 23.3888641 31 16.5304009"></polygon>
</g>
</g>
<path d="M37.3619678,57.4215267 L37.0489829,57.8710738 L35.0438499,57.8710738 C34.7841677,57.9267412 34.5554688,57.9763404 34.4010632,58.0076531 C33.7203884,58.1856596 27.4945986,62.8762919 27.084093,64.0271843 C26.9935584,64.4247858 27.0927566,68.2800823 27.1833641,68.8577942 C27.5937886,68.9464734 30.5555198,68.8693645 31.0989461,68.9576391 L31.0338999,70.1493113 C30.5016334,70.1090172 26.7376286,70.1189695 24.590579,70.1189695 C23.4992285,70.1189695 19.9913236,70.2361301 18.9137101,70.2053834 L19.117342,69.0711588 C19.7088194,69.0284373 22.1551981,69.1766679 22.6912898,68.6215307 C22.9581363,68.3452162 22.8744337,64.6817625 22.7840693,64.0622188 C22.5573722,63.3997118 17.1012923,56.7578048 15.6754801,55.6696196 L12,55.6696196 L12,54 L24.3938602,54 L24.3938602,54.1152181 C24.4044364,54.1152181 24.4251757,54.1169976 24.435752,54.1188558 L24.3938602,54.4012384 L24.3938602,55.6696157 L20.6565919,55.6696157 C22.3222628,58.0361305 24.7105894,60.8932148 25.7290649,62.2658045 L30.720842,57.8709864 L27.7540213,57.8709864 L27.3360273,56.2033895 L38.2051282,56.2033895 L38.1247567,56.3222492 C38.1335905,56.3222492 38.151323,56.3240286 38.1631554,56.3240286 L37.3867835,57.4181213 C37.3797003,57.4181213 37.3680461,57.4197433 37.3619678,57.4215228 Z M36.4547265,66.976996 L36.4102565,59.5184771 C36.7863318,59.5909819 39.6816641,59.859289 40,59.8701849 L38.0927655,67.106383 L36.4547265,66.976996 Z M37.9226135,70.2109329 L36.9566897,70.140196 L36.0602832,70.0633612 L36.051746,68.1412704 L37.1871942,68.2766461 L38.2055608,68.3266497 L37.9226135,70.2109329 Z" id="Combined-Shape" fill="#FFFFFF" fill-rule="nonzero" mask="url(#mask-2)"></path>
<g id="Group-2" mask="url(#mask-2)">
<g transform="translate(25.000000, 0.000000)">
<rect id="Rectangle-32" fill="#549FBA" fill-rule="nonzero" x="0" y="0" width="46" height="46" rx="5"></rect>
<g id="google" stroke-width="1" fill="none" fill-rule="evenodd" transform="translate(8.000000, 8.000000)">
<g fill="#FFFFFF" fill-rule="nonzero" id="Shape">
<path d="M10.0469076,0.792682672 C6.41329582,2.00082052 3.31710562,4.64313493 1.59254371,7.98694875 C0.990952349,9.14052559 0.557806566,10.3642523 0.293106363,11.6347456 C-0.364633515,14.7836985 0.0925759171,18.1431012 1.5845225,21.0114543 C2.55508989,22.8821194 3.95078185,24.550129 5.63523766,25.8518002 C7.23146008,27.0833213 9.08436147,28.0030649 11.0575812,28.5097035 C13.5441587,29.1566417 16.1911608,29.1410528 18.6937808,28.5876478 C20.9557644,28.0810094 23.0974296,27.0287603 24.8059491,25.5010505 C26.6107231,23.8876018 27.9021393,21.7675147 28.5839429,19.4837445 C29.3299161,16.9973189 29.4261708,14.3394156 28.9609401,11.78284 L14.9238083,11.78284 L14.9238083,17.4416018 L23.0573235,17.4416018 C22.744496,19.2499113 21.6375678,20.9023322 20.0734303,21.9234035 C19.0868205,22.5703418 17.9558287,22.9834471 16.7847309,23.1861024 C15.613633,23.3809633 14.394408,23.4043467 13.2233101,23.178308 C12.0281486,22.9444749 10.8971567,22.4612197 9.90252566,21.7831036 C8.31432452,20.6996767 7.10312059,19.1174059 6.48548679,17.3324797 C5.85181055,15.5163756 5.84378933,13.4976163 6.48548679,11.6893066 C6.93467501,10.411019 7.67262708,9.23405882 8.65121569,8.2675485 C9.85439847,7.06720508 11.418536,6.20981692 13.111013,5.85906723 C14.5548323,5.56287859 16.0788638,5.61743966 17.4905981,6.03054486 C18.6937808,6.38129456 19.8007089,7.0282329 20.7071066,7.87003218 C21.6215255,6.98146627 22.5359444,6.09290037 23.4503633,5.20433446 C23.9316362,4.72887375 24.436973,4.26900193 24.9022036,3.77795234 C23.5145329,2.53084229 21.8782045,1.52535982 20.097494,0.886215914 C16.8890067,-0.267360877 13.2794586,-0.290744191 10.0469076,0.792682672 Z"></path>
</g>
</g>
</g>
</g>
</g>
</g>
</svg>