<svg xmlns="http://www.w3.org/2000/svg" width="96" height="80" viewBox="0 0 96 80">
<g fill="none" fill-rule="evenodd">
<g transform="translate(3 5)">
<rect width="40" height="18" fill="#A4AAB0" fill-rule="nonzero" rx="2"></rect>
<path fill="#549FBA" d="M6.68263061,9.6949817 C6.56129818,9.90383001 6.4663496,10.1299041 6.40234837,10.3686406 L6.40234837,10.3686406 L4.62458859,10.3686406 C4.36753072,9.98461611 3.92976435,9.73177653 3.43294413,9.73177653 C2.64155094,9.73177653 2,10.3733275 2,11.1647207 C2,11.9561139 2.64155094,12.5976648 3.43294413,12.5976648 C3.99413426,12.5976648 4.47997674,12.2750632 4.71513964,11.8051918 L6.40000739,11.8051918 C6.71522747,12.9966931 7.80069958,13.875 9.09131125,13.875 C10.6287001,13.875 11.875,12.6287001 11.875,11.0913112 C11.875,9.81464073 11.0155655,8.73870189 9.84369317,8.41049131 L9.84369317,6.69513333 L9.84369317,6.69513333 C10.2925961,6.45314576 10.5976648,5.97867125 10.5976648,5.43294413 C10.5976648,4.64155094 9.95611386,4 9.16472067,4 C8.37332747,4 7.73177653,4.64155094 7.73177653,5.43294413 C7.73177653,5.94770437 8.0032057,6.39906893 8.41074904,6.65172282 L8.41074904,8.39141441 C8.15813555,8.45489009 7.91923054,8.55288884 7.6993419,8.68010279 L5.77390618,6.75466706 C5.80475316,6.63770611 5.82118436,6.51489202 5.82118436,6.38824022 C5.82118436,5.59684703 5.17963341,4.95529609 4.38824022,4.95529609 C3.59684703,4.95529609 2.95529609,5.59684703 2.95529609,6.38824022 C2.95529609,7.17963341 3.59684703,7.82118436 4.38824022,7.82118436 C4.51685763,7.82118436 4.64151728,7.80423918 4.76010846,7.77245955 L6.68263061,9.6949817 L6.68263061,9.6949817 Z"></path>
<rect width="21" height="2" x="15" y="4" fill="#FFF" fill-rule="nonzero"></rect>
<rect width="17" height="2" x="15" y="8" fill="#FFF" fill-rule="nonzero"></rect>
<rect width="7" height="2" x="15" y="12" fill="#FFF" fill-rule="nonzero"></rect>
</g>
<g fill-rule="nonzero" transform="translate(53 5)">
<rect width="40" height="18" fill="#DCDDDF" rx="2"></rect>
<rect width="21" height="2" x="15" y="4" fill="#FFF"></rect>
<rect width="17" height="2" x="15" y="8" fill="#FFF"></rect>
<rect width="7" height="2" x="15" y="12" fill="#FFF"></rect>
<path fill="#549FBA" d="M9.4495713,5.03592976 C7.19550993,5.03592976 5.3678926,6.8633586 5.3678926,9.1171875 C5.3678926,11.3710164 7.19550993,13.1984452 9.4495713,13.1984452 C11.7036327,13.1984452 13.53125,11.3710164 13.53125,9.1171875 C13.53125,6.8633586 11.7036327,5.03592976 9.4495713,5.03592976 Z M9.4495713,10.1364867 C8.88097924,10.1364867 8.43016697,9.68572092 8.43016697,9.1171875 C8.43016697,8.54865408 8.88097924,8.0978883 9.4495713,8.0978883 C10.0181634,8.0978883 10.4689756,8.54865408 10.4689756,9.1171875 C10.4689756,9.68572092 9.99379513,10.1364867 9.4495713,10.1364867 Z M2.28125,9.1171875 C2.28125,8.54865408 2.73206227,8.0978883 3.30065433,8.0978883 C3.86924639,8.0978883 4.32412004,8.54865408 4.32412004,9.1171875 C4.32412004,9.68572092 3.87330776,10.1364867 3.3047157,10.1364867 C2.73612365,10.1364867 2.28125,9.68572092 2.28125,9.1171875 Z"></path>
</g>
<g fill-rule="nonzero" transform="translate(3 61)">
<rect width="40" height="18" fill="#DCDDDF" rx="2"></rect>
<path fill="#549FBA" d="M5.83229962,1.44402415 L5.59820216,2.60060493 C5.57145496,2.72379619 5.45774538,2.8332947 5.31728861,2.8332947 L3.28400875,2.8332947 C3.05659809,2.8332947 2.86932522,3.02491493 2.86932522,3.2576047 L2.86932522,3.51082056 C2.86932522,3.74351034 3.05659809,3.93513056 3.28400875,3.93513056 L5.00294106,3.93513056 C5.16346673,3.93513056 5.29722821,4.09253196 5.26378571,4.26362611 C5.23034322,4.44157097 5.04976565,5.34493589 5.02968826,5.44074166 C5.01631466,5.54339814 4.90930037,5.67343143 4.7487747,5.67343143 L3.34420694,5.67343143 C3.04991129,5.68027346 2.9897216,5.68711549 2.81582233,5.90611251 C2.64192306,6.12510954 1.10358532,8.09610019 1.10358532,8.09610019 C1.09021172,8.11662627 1.07683812,8.10978424 1.07683812,8.08925816 L1.07683812,1.38927055 C1.07683812,1.23187785 1.2039128,1.10183586 1.35775167,1.10183586 L5.57815026,1.10183586 C5.72529383,1.10183586 5.87243741,1.25240393 5.83229962,1.44402415 M6.13996887,0 L0.929686045,0 C0.214028564,9.88371561e-16 0,0.554343292 0,0.903373609 L0,9.37585483 C0,9.79331411 0.207341765,9.91650538 0.321042847,9.96439957 C0.434752425,10.0123024 0.735726376,10.04653 0.949754941,9.82752425 C0.949754941,9.82752425 3.42447402,6.8778977 3.46460332,6.82999482 C3.50473261,6.78208324 3.52479301,6.78208324 3.5515487,6.78208324 L5.11663364,6.78208324 C5.78548353,6.78208324 5.91255821,6.30987035 5.98613,6.02243567 C6.04632818,5.78290386 6.73522997,2.36106443 6.94925854,1.27976334 C7.1097927,0.444844778 6.90245094,3.95348624e-15 6.13996887,3.95348624e-15" transform="translate(5 4)"></path>
<rect width="21" height="2" x="15" y="4" fill="#FFF"></rect>
<rect width="17" height="2" x="15" y="8" fill="#FFF"></rect>
<rect width="7" height="2" x="15" y="12" fill="#FFF"></rect>
</g>
<g fill-rule="nonzero" transform="translate(3 34)">
<rect width="40" height="18" fill="#D2D5D8" rx="2"></rect>
<path fill="#549FBA" d="M8.89235577,14.6202404 L8.89235577,9.51117187 L10.6072776,9.51117187 L10.8640264,7.52008413 L8.89235577,7.52008413 L8.89235577,6.24883413 C8.89235577,5.67237981 9.05245192,5.27949519 9.87916466,5.27949519 L10.9335276,5.27900841 L10.9335276,3.49820913 C10.7510937,3.47403245 10.1252584,3.41983774 9.39714543,3.41983774 C7.87698918,3.41983774 6.83625601,4.34769231 6.83625601,6.05174279 L6.83625601,7.52013822 L5.11689904,7.52013822 L5.11689904,9.51122596 L6.83620192,9.51122596 L6.83620192,14.6202945 L8.89235577,14.6202404 Z"></path>
<rect width="21" height="2" x="15" y="4" fill="#FFF"></rect>
<rect width="17" height="2" x="15" y="8" fill="#FFF"></rect>
<rect width="7" height="2" x="15" y="12" fill="#FFF"></rect>
</g>
<g fill-rule="nonzero" transform="translate(53 34)">
<rect width="40" height="18" fill="#D2D5D8" rx="2"></rect>
<path fill="#549FBA" d="M3.25454704,0.279270348 C2.08019645,0.67196081 1.07953568,1.53081286 0.522172812,2.61767872 C0.327743905,2.99263479 0.187755091,3.39039221 0.102206371,3.80335057 C-0.11036923,4.82687928 0.0373967379,5.91881212 0.519580428,6.85113528 C0.833259062,7.45917213 1.28433413,8.0013383 1.82873506,8.42443061 C2.34461976,8.82472152 2.9434608,9.12367297 3.58118762,9.28834963 C4.38482708,9.49862903 5.24031428,9.49356205 6.04913853,9.31368449 C6.78019123,9.14900787 7.47235814,8.80698714 8.02453624,8.3104237 C8.60782293,7.78599192 9.025197,7.09688348 9.24554977,6.35457184 C9.48664161,5.54638955 9.51775024,4.68247053 9.3673919,3.85148683 L4.83071737,3.85148683 L4.83071737,5.6907983 L7.4593962,5.6907983 C7.35829318,6.27856723 7.00054397,6.81566646 6.49502882,7.14755323 C6.1761654,7.35783263 5.81063907,7.49210746 5.43215079,7.5579781 C5.05366252,7.62131526 4.65961997,7.62891573 4.28113169,7.55544461 C3.89486626,7.47944001 3.52933988,7.32236381 3.20788409,7.10195046 C2.69459179,6.74979577 2.3031416,6.23549795 2.10352792,5.65532948 C1.89872947,5.06502701 1.89613709,4.40885394 2.10352792,3.82108496 C2.2487015,3.40559315 2.48720096,3.02303663 2.80347198,2.70888425 C3.19232981,2.31872727 3.69784496,2.04004371 4.24483827,1.92603681 C4.71146766,1.8297643 5.2040209,1.84749871 5.66028072,1.98177352 C6.04913853,2.09578043 6.4068877,2.30605984 6.69982728,2.57967642 C6.99535922,2.29085892 7.29089117,2.00204141 7.58642311,1.71322391 C7.7419662,1.55868121 7.90528649,1.40920549 8.05564483,1.24959581 C7.60716217,0.844237916 7.07831555,0.51741811 6.50280598,0.309672186 C5.4658518,-0.065283869 4.29927838,-0.0728843297 3.25454704,0.279270348 Z" transform="translate(3.172 4.266)"></path>
<rect width="21" height="2" x="15" y="4" fill="#FFF"></rect>
<rect width="17" height="2" x="15" y="8" fill="#FFF"></rect>
<rect width="7" height="2" x="15" y="12" fill="#FFF"></rect>
</g>
<g fill-rule="nonzero" transform="translate(53 61)">
<rect width="40" height="18" fill="#A4AAB0" rx="2"></rect>
<path fill="#549FBA" d="M5.40559879,3.49260956 C5.92771785,3.06369259 6.93114702,2.9408992 7.34413692,3.02473676 C7.7575862,3.1079338 7.9735456,3.34939698 7.97603641,3.64358931 L7.99998494,7.39369961 C8.00170763,7.68837219 7.85541201,7.95898251 7.67443652,7.99537629 C7.49250372,8.03108956 7.22477658,7.85600755 7.07748315,7.60537541 L5.19423745,4.38996025 C5.0483617,4.13880773 4.75381263,4.0282656 5.40559879,3.49260956 Z M4.6480104,9.97606979 L6.48647145,9.22764546 C6.74258018,9.12296878 6.9720859,8.8321903 6.99779705,8.57966635 C7.02250499,8.32705729 6.83650775,8.02721727 6.58389145,7.91228227 L4.64184246,7.02635495 C4.3889292,6.91129157 4.09741185,7.1839897 4.02057562,7.63005263 C4.02057562,7.63005263 3.97428048,9.18344971 4.02057562,9.50504557 C4.06735357,9.82642763 4.39186432,10.0808746 4.6480104,9.97606979 Z M7.99982815,10.5012583 C8.00646683,10.2414033 7.81992604,10.0172261 7.58487782,10.0012009 C7.34940262,9.98503462 6.97599002,10.1340165 6.75322278,10.3320602 L5.11656179,11.7897214 C4.89379424,11.9878002 5.00432422,12.4529896 5.32918171,12.5411459 L7.04047783,12.9824914 C7.36614126,13.0706831 7.93998753,12.8100529 7.94657851,12.5511133 L7.99982815,10.5012583 Z M11.5938276,10.576505 L9.80104159,10.0580764 C9.51036336,9.97399106 9.18037249,9.98194914 9.06864967,10.0771598 C8.9566369,10.1710373 8.98472293,10.468419 9.13082862,10.736717 L10.2624319,12.8196418 C10.4085376,13.087773 10.993747,13.0418135 11.1548484,12.7816409 C11.1548484,12.7816409 11.8368262,11.7697834 11.9620951,11.390191 C12.0878196,11.0098904 11.8843408,10.6604654 11.5938276,10.576505 Z M11.9608748,8.11180897 C11.8845145,7.91531756 11.3553523,7.33643277 11.0686104,7.13919591 C10.7822599,6.94133791 10.4545213,6.9660895 10.2699192,7.13981846 L9.17893089,8.17168641 C8.9939761,8.34528964 8.94449091,8.62078778 9.06779402,8.7825587 C9.1909403,8.94451598 9.51965673,9.03619335 9.79845756,8.98647258 L11.6857119,8.7087385 C12.0261642,8.64383128 12.0384084,8.30811542 11.9608748,8.11181017 L11.9608748,8.11180897 Z"></path>
<rect width="21" height="2" x="15" y="4" fill="#FFF"></rect>
<rect width="17" height="2" x="15" y="8" fill="#FFF"></rect>
<rect width="7" height="2" x="15" y="12" fill="#FFF"></rect>
</g>
<circle cx="48.866" cy="40.866" r="22.5" stroke="#549FBA" stroke-opacity=".604" transform="rotate(-75 48.866 40.866)"></circle>
</g>
</svg>