<svg xmlns="http://www.w3.org/2000/svg" width="96" height="80" viewBox="0 0 96 80">
<g fill="none" fill-rule="evenodd">
<path fill="#9CC3D1" d="M35.7760932,22.0040416 L28.8263804,27.5602849 C27.815819,28.3682212 27.3272929,28.032354 27.7377726,26.802477 L30.5117372,18.4911406 L23.7397288,14.4269397 C22.6340998,13.7633997 22.7858358,13.2254943 24.0744729,13.2254943 L32.2665225,13.2254943 L35.036092,4.9204322 C35.4447834,3.69489604 36.1062651,3.69148367 36.5160945,4.9204322 L39.2856639,13.2254943 L47.4777136,13.2254943 C48.7682166,13.2254943 48.9166448,13.7642651 47.8124577,14.4269397 L41.0404493,18.4911406 L43.8100188,26.802477 C44.2187102,28.0289391 43.7324692,28.3691423 42.7213974,27.5602849 L35.7760932,22.0040416 Z"></path>
<g transform="translate(10 26)">
<path fill="#A4AAB0" fill-rule="nonzero" d="M49.578125,31 C48.921875,33.3333333 50.5625,35.6666667 54.5,38 C48.05167,38 43.6977004,35.6666667 41.4380912,31 L5,31 C2.23857625,31 3.38176876e-16,28.7614237 0,26 L0,5 C-3.38176876e-16,2.23857625 2.23857625,-1.26909153e-15 5,-1.77635684e-15 L50,0 C52.7614237,-5.07265313e-16 55,2.23857625 55,5 L55,26 C55,28.7614237 52.7614237,31 50,31 L49.578125,31 Z M21.1293489,8.0006736 L22.2868996,8.92671416 C22.4554115,9.06152372 22.5364517,9.00482318 22.4683365,8.80041284 L22.0067415,7.4151901 L23.1354096,6.73782328 C23.3194408,6.62737751 23.2947028,6.53758238 23.0796189,6.53758238 L21.7142773,6.53758238 L21.2526824,5.15340537 C21.1843775,4.94858061 21.0741306,4.94914934 21.0060153,5.15340537 L20.5444204,6.53758238 L19.1790788,6.53758238 C18.964306,6.53758238 18.9390166,6.62723329 19.1232881,6.73782328 L20.2519562,7.4151901 L19.7896288,8.80041284 C19.7212155,9.00539234 19.8026365,9.0613702 19.9710634,8.92671416 L21.1293489,8.0006736 Z M26.1293489,8.0006736 L27.2868996,8.92671416 C27.4554115,9.06152372 27.5364517,9.00482318 27.4683365,8.80041284 L27.0067415,7.4151901 L28.1354096,6.73782328 C28.3194408,6.62737751 28.2947028,6.53758238 28.0796189,6.53758238 L26.7142773,6.53758238 L26.2526824,5.15340537 C26.1843775,4.94858061 26.0741306,4.94914934 26.0060153,5.15340537 L25.5444204,6.53758238 L24.1790788,6.53758238 C23.964306,6.53758238 23.9390166,6.62723329 24.1232881,6.73782328 L25.2519562,7.4151901 L24.7896288,8.80041284 C24.7212155,9.00539234 24.8026365,9.0613702 24.9710634,8.92671416 L26.1293489,8.0006736 Z M31.1293489,8.0006736 L32.2868996,8.92671416 C32.4554115,9.06152372 32.5364517,9.00482318 32.4683365,8.80041284 L32.0067415,7.4151901 L33.1354096,6.73782328 C33.3194408,6.62737751 33.2947028,6.53758238 33.0796189,6.53758238 L31.7142773,6.53758238 L31.2526824,5.15340537 C31.1843775,4.94858061 31.0741306,4.94914934 31.0060153,5.15340537 L30.5444204,6.53758238 L29.1790788,6.53758238 C28.964306,6.53758238 28.9390166,6.62723329 29.1232881,6.73782328 L30.2519562,7.4151901 L29.7896288,8.80041284 C29.7212155,9.00539234 29.8026365,9.0613702 29.9710634,8.92671416 L31.1293489,8.0006736 Z M36.1293489,8.0006736 L37.2868996,8.92671416 C37.4554115,9.06152372 37.5364517,9.00482318 37.4683365,8.80041284 L37.0067415,7.4151901 L38.1354096,6.73782328 C38.3194408,6.62737751 38.2947028,6.53758238 38.0796189,6.53758238 L36.7142773,6.53758238 L36.2526824,5.15340537 C36.1843775,4.94858061 36.0741306,4.94914934 36.0060153,5.15340537 L35.5444204,6.53758238 L34.1790788,6.53758238 C33.964306,6.53758238 33.9390166,6.62723329 34.1232881,6.73782328 L35.2519562,7.4151901 L34.7896288,8.80041284 C34.7212155,9.00539234 34.8026365,9.0613702 34.9710634,8.92671416 L36.1293489,8.0006736 Z M41.1293489,8.0006736 L42.2868996,8.92671416 C42.4554115,9.06152372 42.5364517,9.00482318 42.4683365,8.80041284 L42.0067415,7.4151901 L43.1354096,6.73782328 C43.3194408,6.62737751 43.2947028,6.53758238 43.0796189,6.53758238 L41.7142773,6.53758238 L41.2526824,5.15340537 C41.1843775,4.94858061 41.0741306,4.94914934 41.0060153,5.15340537 L40.5444204,6.53758238 L39.1790788,6.53758238 C38.964306,6.53758238 38.9390166,6.62723329 39.1232881,6.73782328 L40.2519562,7.4151901 L39.7896288,8.80041284 C39.7212155,9.00539234 39.8026365,9.0613702 39.9710634,8.92671416 L41.1293489,8.0006736 Z M9,17 C12.3137085,17 15,14.3137085 15,11 C15,7.6862915 12.3137085,5 9,5 C5.6862915,5 3,7.6862915 3,11 C3,14.3137085 5.6862915,17 9,17 Z M4,21 L4,23 L14,23 L14,21 L4,21 Z M20,17 L20,19 L48,19 L48,17 L20,17 Z M20,13 L20,15 L50,15 L50,13 L20,13 Z M20,21 L20,23 L43,23 L43,21 L20,21 Z M20,25 L20,27 L30,27 L30,25 L20,25 Z M4,25 L4,27 L12,27 L12,25 L4,25 Z"></path>
</g>
<path fill="#9CC3D1" d="M68.2760991,12.0026944 L63.7742134,15.7068566 C63.1195918,16.2454808 62.8031343,16.0215694 63.0690349,15.2016514 L64.865954,9.66076042 L60.4791816,6.95129314 C59.7629771,6.50893315 59.8612687,6.15032953 60.6960222,6.15032953 L66.002669,6.15032953 L67.796741,0.613621469 C68.0614832,-0.203402639 68.4899779,-0.20567755 68.7554572,0.613621469 L70.5495292,6.15032953 L75.8561761,6.15032953 C76.6921383,6.15032953 76.7882871,6.50951005 76.0730167,6.95129314 L71.6862443,9.66076042 L73.4803163,15.2016514 C73.7450585,16.0192927 73.4300812,16.2460949 72.775129,15.7068566 L68.2760991,12.0026944 Z"></path>
<path fill="#549FBA" fill-rule="nonzero" d="M76.2760873,53.0053888 L66.8785475,60.4137132 C65.5120462,61.4909616 64.8514515,61.0431387 65.4065104,59.4033027 L69.1575204,48.3215208 L60.0002759,42.9025863 C58.5052224,42.0178663 58.710403,41.3006591 60.4529236,41.3006591 L71.530376,41.3006591 L75.2754429,30.2272429 C75.8280836,28.5931947 76.7225523,28.5886449 77.2767318,30.2272429 L81.0217987,41.3006591 L92.0992511,41.3006591 C93.844295,41.3006591 94.0450025,42.0190201 92.5518988,42.9025863 L83.3946543,48.3215208 L87.1397212,59.4033027 C87.6923619,61.0385854 87.0348571,61.4921898 85.6676658,60.4137132 L76.2760873,53.0053888 Z"></path>
<path fill="#437F95" fill-rule="nonzero" d="M23.2760873,72.0053888 L13.8785475,79.4137132 C12.5120462,80.4909616 11.8514515,80.0431387 12.4065104,78.4033027 L16.1575204,67.3215208 L7.00027593,61.9025863 C5.50522244,61.0178663 5.71040297,60.3006591 7.45292358,60.3006591 L18.530376,60.3006591 L22.2754429,49.2272429 C22.8280836,47.5931947 23.7225523,47.5886449 24.2767318,49.2272429 L28.0217987,60.3006591 L39.0992511,60.3006591 C40.844295,60.3006591 41.0450025,61.0190201 39.5518988,61.9025863 L30.3946543,67.3215208 L34.1397212,78.4033027 C34.6923619,80.0385854 34.0348571,80.4921898 32.6676658,79.4137132 L23.2760873,72.0053888 Z"></path>
</g>
</svg>