<svg width="80px" height="75px" viewBox="0 0 80 75" version="1.1" xmlns="http://www.w3.org/2000/svg" xmlns:xlink="http://www.w3.org/1999/xlink">
<g id="Symbols" stroke="none" stroke-width="1" fill="none" fill-rule="evenodd">
<g id="Icons-/-Benefits-LSRC-/-Mobile-rankings-v2" transform="translate(-8.000000, -5.000000)" fill-rule="nonzero">
<g id="Group" transform="translate(8.000000, 63.000000)">
<path d="M61.0712891,12.9362793 L79.3447725,12.3564453 C79.6460263,12.7133154 79.4131846,15.1866409 79.3447725,15.4792265 C79.1952836,16.1185614 78.2214202,16.5522461 76.6773466,16.5522461 L3.32265343,16.5522461 C1.72839413,16.5522461 0.742013612,16.089912 0.643272728,15.4162434 C0.602615625,15.1388567 0.363414236,12.6879701 0.643272728,12.3564453 L10.1196289,12.3564453 C11.4858398,12.9362793 60.2614351,11.7996048 61.0712891,12.9362793 Z" id="Combined-Shape-Copy" fill="#437F95"></path>
<path d="M17.0186981,0 L62.9813019,0 C64.3915489,0 66.183762,0.638689184 66.993616,1.42655222 L79.0076903,12.1256939 C79.9672203,12.9135569 78.9280509,13.5522461 76.6773466,13.5522461 L3.32265343,13.5522461 C1.07194907,13.5522461 0.0327797379,12.9135569 0.992309745,12.1256939 L13.006384,1.42655222 C13.816238,0.638689184 15.6084511,0 17.0186981,0 Z M21.6180064,0.71327611 C21.2554316,0.71327611 20.8429716,0.865213126 20.69633,1.05263693 L11.4054459,11.9121833 C11.2313866,12.0996071 11.5362689,12.2515441 12.0868408,12.2515441 L73.8945505,12.2515441 C74.4451223,12.2515441 74.7207403,12.0996071 74.5106687,11.9121833 L63.2975327,1.05263693 C63.1205515,0.865213126 62.683567,0.71327611 62.3209922,0.71327611 L21.6180064,0.71327611 Z M11.1213532,7.23875995 C12.5286387,7.23875995 14.0914311,6.75974306 14.6078959,6.16884578 C15.1198855,5.57794851 14.4715035,5.09893162 13.1637458,5.09893162 C11.8559881,5.09893162 10.3043795,5.57794851 9.69329513,6.16884578 C9.07686932,6.75974306 9.71406764,7.23875995 11.1213532,7.23875995 Z M70.6781117,6.52548384 C71.1360321,6.52548384 71.3362241,6.36581154 71.125805,6.16884578 C70.9159954,5.97188003 70.3841055,5.81220773 69.9372438,5.81220773 C69.4903821,5.81220773 69.2888378,5.97188003 69.4876047,6.16884578 C69.6869492,6.36581154 70.2201914,6.52548384 70.6781117,6.52548384 Z" id="Combined-Shape" fill="#549FBA"></path>
</g>
<g id="Group-2" transform="translate(33.000000, 5.000000)">
<g id="Group-4-Copy" transform="translate(8.000000, 0.000000)">
<rect id="Combined-Shape" fill="#A4AAB0" x="0" y="0" width="30" height="18" rx="2"></rect>
<rect id="Rectangle-Copy-2" fill="#FFFFFF" x="4" y="4" width="23" height="2"></rect>
<rect id="Rectangle-Copy-4" fill="#FFFFFF" x="4" y="8" width="21" height="2"></rect>
<rect id="Rectangle-Copy-5" fill="#FFFFFF" x="4" y="12" width="7" height="2"></rect>
</g>
<g id="Group-4-Copy-2" transform="translate(3.000000, 22.000000)">
<rect id="Combined-Shape" fill="#D2D5D8" x="0" y="0" width="30" height="18" rx="2"></rect>
<rect id="Rectangle-Copy-2" fill="#FFFFFF" x="4" y="4" width="23" height="2"></rect>
<rect id="Rectangle-Copy-4" fill="#FFFFFF" x="4" y="8" width="21" height="2"></rect>
<rect id="Rectangle-Copy-5" fill="#FFFFFF" x="4" y="12" width="7" height="2"></rect>
</g>
<g id="Group-4-Copy-3" transform="translate(0.000000, 45.000000)">
<rect id="Combined-Shape" fill="#E9EAEC" x="0" y="0" width="30" height="18" rx="2"></rect>
<rect id="Rectangle-Copy-2" fill="#FFFFFF" x="4" y="4" width="23" height="2"></rect>
<rect id="Rectangle-Copy-4" fill="#FFFFFF" x="4" y="8" width="21" height="2"></rect>
<rect id="Rectangle-Copy-5" fill="#FFFFFF" x="4" y="12" width="7" height="2"></rect>
</g>
</g>
</g>
</g>
</svg>