<svg xmlns="http://www.w3.org/2000/svg" xmlns:xlink="http://www.w3.org/1999/xlink" width="96" height="80" viewBox="0 0 96 80">
<defs>
<path id="white-label-a" d="M39.9692456,6.90747104 C40.9229899,7.45811558 41.2475509,8.68150176 40.6970103,9.63506612 C40.6970103,9.63506612 33.4961688,22.1072895 26.6122282,34.0306243 C23.6055337,39.238372 0.105189571,48.2547997 0.105189571,47.942162 C9.01699432,32.5064634 26.8406038,1.63506612 26.8406038,1.63506612 C27.3924148,0.679301494 28.6144176,0.351758055 29.5666528,0.901531316 L39.9692456,6.90747104 Z"></path>
<path id="white-label-c" d="M15.2463637,13.1091839 L14.6952946,14.0636637 C14.1434836,15.0194283 12.9214808,15.3469718 11.9692456,14.7971985 C11.9692456,14.7971985 10.7228361,14.0775837 9.14213003,13.1649626 C7.48276473,12.2069276 5.45500437,11.0361996 4.11401585,10.2619795 C3.26489484,9.77173926 1.56665282,8.79125877 1.56665282,8.79125877 C0.612908498,8.24061423 0.28834746,7.01722805 0.838888099,6.06366369 L3.9011855,0.759609009 C3.9011855,0.759609009 4.5166281,10.4738348 5,11 C5.26588502,11.289424 4.28796192,11.3094488 7,12 C9.71203808,12.6905512 15.2463637,13.1091839 15.2463637,13.1091839 Z"></path>
<path id="white-label-e" d="M60.092529,1.56665282 L66.0984687,11.9692456 C66.6491132,12.9229899 66.3184982,14.1447539 65.3649339,14.6952946 C65.3649339,14.6952946 48.7357351,24.2961669 40.4211358,29.0966031 C38,30 5,31 5,31 C4.04423537,31.551811 5.10595379,42.3271109 4.05456007,40.5060435 L1.2028015,35.5666528 C0.652156964,34.6129085 0.982771952,33.3911445 1.93633631,32.8406038 L57.3649339,0.838888099 C58.3206985,0.287077134 59.5427557,0.614417599 60.092529,1.56665282 Z"></path>
<linearGradient id="white-label-g" x1="97.895%" x2="1.557%" y1="0%" y2="95.782%">
<stop offset="0%" stop-color="#8DCDDE"></stop>
<stop offset="100%" stop-color="#549FBA"></stop>
</linearGradient>
</defs>
<g fill="none" fill-rule="evenodd">
<g transform="translate(13 5)">
<path fill="#DCDDDF" fill-rule="nonzero" d="M4.99406028,0 L17.0059397,0 C18.1072288,0 19,0.897202996 19,1.99828427 L19,31 L7,51 L3,51 L3,1.99828427 C3,0.894662343 3.89451376,0 4.99406028,0 Z"></path>
<path d="M2.57093891,61.0636637 C2.57157519,61.0625616 12.9692456,67.0651477 12.9692456,67.0651477 C12.9648298,67.0625982 44.9649595,11.6350661 44.9649595,11.6350661 C44.9643232,11.6361682 34.5666528,5.63358212 34.5666528,5.63358212 C34.5710686,5.63613159 2.57093891,61.0636637 2.57093891,61.0636637 Z"></path>
<g transform="translate(6 3)">
<mask id="white-label-b" fill="#fff">
<use xlink:href="#white-label-a"></use>
</mask>
<path fill="#D2D5D8" fill-rule="nonzero" d="M29.5666528,0.901531316 L39.9692456,6.90747104 C40.9229899,7.45811558 41.2475509,8.68150176 40.6970103,9.63506612 L8.69529456,65.0636637 C8.14348359,66.0194283 6.92148079,66.3469718 5.96924557,65.7971985 L-4.43334718,59.7912588 C-5.3870915,59.2406142 -5.71165254,58.017228 -5.1611119,57.0636637 L26.8406038,1.63506612 C27.3924148,0.679301494 28.6144176,0.351758055 29.5666528,0.901531316 L29.5666528,0.901531316 Z" mask="url(#white-label-b)"></path>
</g>
<g transform="translate(0 54)">
<mask id="white-label-d" fill="#fff">
<use xlink:href="#white-label-c"></use>
</mask>
<path fill="#D2D5D8" fill-rule="nonzero" d="M35.5666528,-50.0984687 L45.9692456,-44.092529 C46.9229899,-43.5418844 47.2475509,-42.3184982 46.6970103,-41.3649339 L14.6952946,14.0636637 C14.1434836,15.0194283 12.9214808,15.3469718 11.9692456,14.7971985 L1.56665282,8.79125877 C0.612908498,8.24061423 0.28834746,7.01722805 0.838888099,6.06366369 L32.8406038,-49.3649339 C33.3924148,-50.3206985 34.6144176,-50.6482419 35.5666528,-50.0984687 L35.5666528,-50.0984687 Z" mask="url(#white-label-d)"></path>
</g>
<path d="M2.93633631,55.5726546 C2.93743839,55.5720183 8.94079203,65.9692456 8.94079203,65.9692456 C8.93824257,65.9648298 64.3649339,33.9632438 64.3649339,33.9632438 C64.3638318,33.96388 58.3604782,23.5666528 58.3604782,23.5666528 C58.3630276,23.5710686 2.93633631,55.5726546 2.93633631,55.5726546 Z"></path>
<g transform="translate(0 21)">
<mask id="white-label-f" fill="#fff">
<use xlink:href="#white-label-e"></use>
</mask>
<path fill="#A4AAB0" fill-rule="nonzero" d="M60.092529,1.56665282 L66.0984687,11.9692456 C66.6491132,12.9229899 66.3184982,14.1447539 65.3649339,14.6952946 L9.93633631,46.6970103 C8.98057168,47.2488213 7.75851449,46.9214808 7.20874123,45.9692456 L1.2028015,35.5666528 C0.652156964,34.6129085 0.982771952,33.3911445 1.93633631,32.8406038 L57.3649339,0.838888099 C58.3206985,0.287077134 59.5427557,0.614417599 60.092529,1.56665282 Z" mask="url(#white-label-f)"></path>
</g>
<g fill-rule="nonzero" transform="translate(3 50)">
<path d="M2,16.0049107 C2,16.0017857 66.0017157,16 66.0017157,16 C66.0002129,16 66,1.99508929 66,1.99508929 C66,1.99821431 1.99828427,2 1.99828427,2 C1.99978712,2 2,16.0049107 2,16.0049107 Z"></path>
<path fill="url(#white-label-g)" d="M1.99828427,0 L66.0017157,0 C67.1053377,0 68,0.892622799 68,1.99508929 L68,16.0049107 C68,17.1067681 67.102797,18 66.0017157,18 L1.99828427,18 C0.894662343,18 0,17.1073772 0,16.0049107 L0,1.99508929 C0,0.893231902 0.897202996,0 1.99828427,0 Z"></path>
<path fill="#437F95" d="M5 9C5 6.790861 6.790861 5 9 5 11.209139 5 13 6.790861 13 9 13 11.209139 11.209139 13 9 13 6.790861 13 5 11.209139 5 9zM18.9953976 4L27.0046024 4C27.5543453 4 28 4.4556644 28 4.99539757L28 13.0046024C28 13.5543453 27.5443356 14 27.0046024 14L18.9953976 14C18.4456547 14 18 13.5443356 18 13.0046024L18 4.99539757C18 4.44565467 18.4556644 4 18.9953976 4z"></path>
<path fill="#549FBA" d="M30.9953976,4 L39.0046024,4 C39.5543453,4 40,4.4556644 40,4.99539757 L40,13.0046024 C40,13.5543453 39.5443356,14 39.0046024,14 L30.9953976,14 C30.4456547,14 30,13.5443356 30,13.0046024 L30,4.99539757 C30,4.44565467 30.4556644,4 30.9953976,4 Z"></path>
<path fill="#437F95" d="M42.9953976 4L51.0046024 4C51.5543453 4 52 4.4556644 52 4.99539757L52 13.0046024C52 13.5543453 51.5443356 14 51.0046024 14L42.9953976 14C42.4456547 14 42 13.5443356 42 13.0046024L42 4.99539757C42 4.44565467 42.4556644 4 42.9953976 4zM54.9953976 4L63.0046024 4C63.5543453 4 64 4.4556644 64 4.99539757L64 13.0046024C64 13.5543453 63.5443356 14 63.0046024 14L54.9953976 14C54.4456547 14 54 13.5443356 54 13.0046024L54 4.99539757C54 4.44565467 54.4556644 4 54.9953976 4z"></path>
</g>
</g>
</g>
</svg>