 <svg width="80px" height="76px" viewBox="0 0 80 76" version="1.1" xmlns="http://www.w3.org/2000/svg" xmlns:xlink="http://www.w3.org/1999/xlink">
<g id="Symbols" stroke="none" stroke-width="1" fill="none" fill-rule="evenodd">
<g id="Icons-/-Benefits-LSRC-/-Multi-Location" transform="translate(-8.000000, -4.000000)">
<g id="Reviews-48" transform="translate(37.000000, 4.000000)">
<g id="Rankings-48">
<path d="M17.875,2.75225653 C17.875,2.24474926 18.2856015,1.83333333 18.7904712,1.83333333 L21.0845288,1.83333333 C21.5901296,1.83333333 22,2.23617015 22,2.75225653 L22,21.5409002 C22,21.794454 21.8010427,22 21.542792,22 L18.332208,22 C18.079699,22 17.875,21.8004034 17.875,21.5409002 L17.875,2.75225653 Z" id="Rectangle-26-Copy-3" fill="#65A8C0"></path>
<path d="M11.9166667,0.917303413 C11.9166667,0.410690727 12.3272682,0 12.8321379,0 L15.1261955,0 C15.6317963,0 16.0416667,0.419834375 16.0416667,0.917303413 L16.0416667,21.5404987 C16.0416667,21.7942743 15.8427093,22 15.5844587,22 L12.3738746,22 C12.1213656,22 11.9166667,21.7962568 11.9166667,21.5404987 L11.9166667,0.917303413 Z" id="Rectangle-26-Copy" fill="#549FBA"></path>
<path d="M5.95833333,6.86676551 C5.95833333,6.36505227 6.36893483,5.95833333 6.87380453,5.95833333 L9.16786214,5.95833333 C9.67346292,5.95833333 10.0833333,6.3709917 10.0833333,6.86676551 L10.0833333,21.5372043 C10.0833333,21.7927993 9.88437601,22 9.62612537,22 L6.4155413,22 C6.16303231,22 5.95833333,21.7971741 5.95833333,21.5372043 L5.95833333,6.86676551 Z" id="Rectangle-26-Copy-2" fill="#76B2C8"></path>
<path d="M0,12.8292794 C0,12.3252573 0.410601497,11.9166667 0.915471196,11.9166667 L3.2095288,11.9166667 C3.71512958,11.9166667 4.125,12.3244339 4.125,12.8292794 L4.125,21.5405384 C4.125,21.794292 3.92604268,22 3.66779204,22 L0.457207963,22 C0.204698977,22 0,21.7893953 0,21.5405384 L0,12.8292794 Z" id="Rectangle-26-Copy-4" fill="#90C0D2"></path>
</g>
</g>
<path d="M48.0000306,56.5 C52.4167142,56.5 56.0000612,60.083347 56.0000612,64.5000306 C56.0000612,65.9167027 55.6111708,67.277819 54.9722795,68.4167122 L48.4444767,80.2500908 C48.3611431,80.3889803 48.1666979,80.5000918 48.0000306,80.5000918 C47.8055854,80.5000918 47.6389181,80.3889803 47.5555845,80.2500908 L41.0277817,68.4167122 C40.3611125,67.277819 40,65.9167027 40,64.5000306 C40,60.083347 43.583347,56.5 48.0000306,56.5 Z M48.0000306,67.5000421 C49.6667036,67.5000421 51.0000421,66.1667036 51.0000421,64.5000306 C51.0000421,62.8333576 49.6667036,61.5000191 48.0000306,61.5000191 C46.3333576,61.5000191 45.0000191,62.8333576 45.0000191,64.5000306 C45.0000191,66.1667036 46.3333576,67.5000421 48.0000306,67.5000421 Z" id="" fill="#A4AAB0" fill-rule="nonzero"></path>
<path d="M66.0000306,50.5 C70.4167142,50.5 74.0000612,54.083347 74.0000612,58.5000306 C74.0000612,59.9167027 73.6111708,61.277819 72.9722795,62.4167122 L66.4444767,74.2500908 C66.3611431,74.3889803 66.1666979,74.5000918 66.0000306,74.5000918 C65.8055854,74.5000918 65.6389181,74.3889803 65.5555845,74.2500908 L59.0277817,62.4167122 C58.3611125,61.277819 58,59.9167027 58,58.5000306 C58,54.083347 61.583347,50.5 66.0000306,50.5 Z M66.0000306,61.5000421 C67.6667036,61.5000421 69.0000421,60.1667036 69.0000421,58.5000306 C69.0000421,56.8333576 67.6667036,55.5000191 66.0000306,55.5000191 C64.3333576,55.5000191 63.0000191,56.8333576 63.0000191,58.5000306 C63.0000191,60.1667036 64.3333576,61.5000421 66.0000306,61.5000421 Z" id="-copy-2" fill="#D2D5D8" fill-rule="nonzero"></path>
<path d="M80.0000306,37.5 C84.4167142,37.5 88.0000612,41.083347 88.0000612,45.5000306 C88.0000612,46.9167027 87.6111708,48.277819 86.9722795,49.4167122 L80.4444767,61.2500908 C80.3611431,61.3889803 80.1666979,61.5000918 80.0000306,61.5000918 C79.8055854,61.5000918 79.6389181,61.3889803 79.5555845,61.2500908 L73.0277817,49.4167122 C72.3611125,48.277819 72,46.9167027 72,45.5000306 C72,41.083347 75.583347,37.5 80.0000306,37.5 Z M80.0000306,48.5000421 C81.6667036,48.5000421 83.0000421,47.1667036 83.0000421,45.5000306 C83.0000421,43.8333576 81.6667036,42.5000191 80.0000306,42.5000191 C78.3333576,42.5000191 77.0000191,43.8333576 77.0000191,45.5000306 C77.0000191,47.1667036 78.3333576,48.5000421 80.0000306,48.5000421 Z" id="-copy-3" fill="#E9EAEC" fill-rule="nonzero"></path>
<path d="M30.0000306,50.5 C34.4167142,50.5 38.0000612,54.083347 38.0000612,58.5000306 C38.0000612,59.9167027 37.6111708,61.277819 36.9722795,62.4167122 L30.4444767,74.2500908 C30.3611431,74.3889803 30.1666979,74.5000918 30.0000306,74.5000918 C29.8055854,74.5000918 29.6389181,74.3889803 29.5555845,74.2500908 L23.0277817,62.4167122 C22.3611125,61.277819 22,59.9167027 22,58.5000306 C22,54.083347 25.583347,50.5 30.0000306,50.5 Z M30.0000306,61.5000421 C31.6667036,61.5000421 33.0000421,60.1667036 33.0000421,58.5000306 C33.0000421,56.8333576 31.6667036,55.5000191 30.0000306,55.5000191 C28.3333576,55.5000191 27.0000191,56.8333576 27.0000191,58.5000306 C27.0000191,60.1667036 28.3333576,61.5000421 30.0000306,61.5000421 Z" id="-copy" fill="#D2D5D8" fill-rule="nonzero"></path>
<path d="M16.0000306,37.5 C20.4167142,37.5 24.0000612,41.083347 24.0000612,45.5000306 C24.0000612,46.9167027 23.6111708,48.277819 22.9722795,49.4167122 L16.4444767,61.2500908 C16.3611431,61.3889803 16.1666979,61.5000918 16.0000306,61.5000918 C15.8055854,61.5000918 15.6389181,61.3889803 15.5555845,61.2500908 L9.02778171,49.4167122 C8.36111249,48.277819 8,46.9167027 8,45.5000306 C8,41.083347 11.583347,37.5 16.0000306,37.5 Z M16.0000306,48.5000421 C17.6667036,48.5000421 19.0000421,47.1667036 19.0000421,45.5000306 C19.0000421,43.8333576 17.6667036,42.5000191 16.0000306,42.5000191 C14.3333576,42.5000191 13.0000191,43.8333576 13.0000191,45.5000306 C13.0000191,47.1667036 14.3333576,48.5000421 16.0000306,48.5000421 Z" id="-copy-4" fill="#E9EAEC" fill-rule="nonzero"></path>
<path d="M48,54.3515625 L48,30.5" id="Path-4" stroke="#549FBA" stroke-width="3" stroke-linecap="round" stroke-linejoin="round" stroke-dasharray="4,6" fill-rule="nonzero"></path>
<path d="M33.7265625,49.3422852 L41.0014648,29.9013672" id="Path-4-Copy" stroke="#549FBA" stroke-width="3" stroke-linecap="round" stroke-linejoin="round" stroke-dasharray="4,6" fill-rule="nonzero"></path>
<path d="M24.2373047,38.3081055 L32.909668,30.0302734" id="Path-4-Copy-2" stroke="#549FBA" stroke-width="3" stroke-linecap="round" stroke-linejoin="round" stroke-dasharray="4,6" fill-rule="nonzero"></path>
<path d="M54.7265625,49.3422852 L62.0014648,29.9013672" id="Path-4-Copy-4" stroke="#549FBA" stroke-width="3" stroke-linecap="round" stroke-linejoin="round" stroke-dasharray="4,6" fill-rule="nonzero" transform="translate(58.364014, 39.621826) scale(-1, 1) translate(-58.364014, -39.621826) "></path>
<path d="M63.2373047,38.3081055 L71.909668,30.0302734" id="Path-4-Copy-3" stroke="#549FBA" stroke-width="3" stroke-linecap="round" stroke-linejoin="round" stroke-dasharray="4,6" fill-rule="nonzero" transform="translate(67.573486, 34.169189) scale(-1, 1) translate(-67.573486, -34.169189) "></path>
</g>
</g>
</svg>