<svg xmlns="http://www.w3.org/2000/svg" xmlns:xlink="http://www.w3.org/1999/xlink" width="96" height="80" viewBox="0 0 96 80">
<defs>
<rect id="insights-integration-a" width="60" height="40" rx="3"></rect>
<linearGradient id="insights-integration-c" x1="85.775%" x2="75.14%" y1="67.925%" y2="23.336%">
<stop offset="0%" stop-color="#A4AAB0" stop-opacity="0"></stop>
<stop offset="100%" stop-color="#A4AAB0"></stop>
</linearGradient>
<linearGradient id="insights-integration-e" x1="54.813%" x2="54.813%" y1="0%" y2="100%">
<stop offset="0%" stop-color="#437F95"></stop>
<stop offset="100%" stop-color="#437F95" stop-opacity="0"></stop>
</linearGradient>
<polygon id="insights-integration-d" points="0 32.471 3.287 21.588 15.225 25.941 27.162 28.118 39.273 2 51.211 32.471 63.148 25.941 71.972 9.717 71.972 39 0 39"></polygon>
</defs>
<g fill="none" fill-rule="evenodd">
<g transform="translate(5 21)">
<path fill="#D2D5D8" fill-rule="nonzero" d="M5,0 L63,0 C65.7614237,-5.07265313e-16 68,2.23857625 68,5 L68,43 C68,45.7614237 65.7614237,48 63,48 L5,48 C2.23857625,48 3.38176876e-16,45.7614237 0,43 L0,5 C-3.38176876e-16,2.23857625 2.23857625,5.07265313e-16 5,0 Z M7,4 C5.34314575,4 4,5.34314575 4,7 L4,41 C4,42.6568542 5.34314575,44 7,44 L61,44 C62.6568542,44 64,42.6568542 64,41 L64,7 C64,5.34314575 62.6568542,4 61,4 L7,4 Z"></path>
<g transform="translate(4 4)">
<mask id="insights-integration-b" fill="#fff">
<use xlink:href="#insights-integration-a"></use>
</mask>
<g mask="url(#insights-integration-b)">
<g transform="translate(-1 2)">
<polygon fill="url(#insights-integration-c)" points="1.028 35.547 4.315 27.828 16.253 27.828 28.191 23.359 40.301 12.188 52.239 9.953 64.177 5.484 73 0 73 39 1.028 39" opacity=".377"></polygon>
<polyline stroke="#A4AAB0" points="71.972 0 63.148 5.554 51.211 10.08 39.273 12.343 27.162 23.657 15.225 28.183 3.287 28.183 0 36"></polyline>
<g>
<use fill="#FFF" xlink:href="#insights-integration-d"></use>
<use fill="url(#insights-integration-e)" xlink:href="#insights-integration-d"></use>
</g>
<polyline stroke="#549FBA" points="0 33 3.287 21.929 15.225 26.357 27.162 28.571 39.273 2 51.211 33 63.148 26.357 71.972 9.851"></polyline>
</g>
</g>
</g>
</g>
<path fill="#437F95" fill-rule="nonzero" d="M28.5956305,6.42686094 C28.0563084,5.87351622 27.1820671,5.87351622 26.642745,6.42686094 L24.0103546,9.1285101 C23.9455778,9.19515954 23.857623,9.23261699 23.7658987,9.23261699 C23.6741743,9.23261699 23.5862196,9.19515954 23.5214427,9.1285101 L20.1032024,5.62033504 C19.9694632,5.48123621 19.9694632,5.25765852 20.1032024,5.1185597 L22.7355927,2.42541521 C23.2767741,1.8719523 23.2783199,0.973025104 22.7390455,0.417605116 C22.199771,-0.137814872 21.3238885,-0.139401401 20.7827071,0.414061504 L18.1503168,3.11571066 C18.0857762,3.18227446 17.9980499,3.21969705 17.9065514,3.21969705 C17.8150529,3.21969705 17.7273267,3.18227446 17.662786,3.11571066 L17.0233334,2.46085132 C16.2143501,1.63083424 14.9029882,1.63083424 14.094005,2.46085132 L9.70070304,6.96974217 C8.11998179,8.60823852 7.29290959,10.8594232 7.4260195,13.1611396 C7.48567383,14.4883778 7.82044189,15.7872976 8.40798671,16.9712303 C8.47458183,17.1076333 8.44902372,17.2724296 8.34445578,17.3808718 L5.79907523,20.0003092 C5.52949558,20.2770651 5.52949558,20.7256865 5.79907523,21.0024424 L6.10429992,21.3171151 C6.16966518,21.3836523 6.20643222,21.4742255 6.20643222,21.5687115 C6.20643222,21.6631975 6.16966518,21.7537707 6.10429992,21.8203079 L1.21241825,26.706239 C-0.404139416,28.3666121 -0.404139416,31.0572478 1.21241825,32.717621 C2.8524348,34.3220789 5.4310584,34.3220789 7.07107495,32.717621 L11.4616147,28.211565 C11.6360394,28.0322979 11.8904006,27.9621511 12.1288828,28.0275481 C12.367365,28.0929451 12.5537372,28.2839506 12.6177948,28.5286147 C12.6818523,28.7732788 12.6138633,29.0344312 12.4394386,29.2136982 L10.1177974,31.5978398 L10,31.7440186 L10,35.7540588 C11.0191771,34.6775385 11.7094048,33.960221 12.070683,33.6021063 L14.3964675,31.2165473 C15.734258,29.8303614 15.7285872,27.5950926 14.3837814,26.2160753 C13.0389756,24.837058 10.8610056,24.8331346 9.51149136,26.2072985 L5.11680828,30.7176068 C4.57004242,31.2521859 3.71068856,31.2521859 3.16392271,30.7176068 C2.63366883,30.1703097 2.62752957,29.2881998 3.15011164,28.7331845 L8.05166106,23.8288267 C8.18638907,23.6935943 8.40170167,23.6935943 8.53642968,23.8288267 L8.71873583,24.0159294 C8.98839691,24.2926017 9.42551754,24.2926017 9.69517861,24.0159294 L12.2474647,21.4007443 C12.3527176,21.2925991 12.5138377,21.2662789 12.6466047,21.3355419 C13.914669,21.9990704 15.31685,22.3476717 16.7402064,22.353267 C18.8545772,22.3762039 20.8902285,21.5311303 22.3944592,20.005979 L26.7919045,15.4885834 C27.6006435,14.6583156 27.6006435,13.3124515 26.7919045,12.4821837 L25.9632402,11.631717 C25.8982994,11.5652359 25.8618022,11.474967 25.8618022,11.3808294 C25.8618022,11.2866917 25.8982994,11.1964229 25.9632402,11.1299417 L28.5956305,8.43112742 C29.1347898,7.87761557 29.1347898,6.9803728 28.5956305,6.42686094 Z M17.1216406,11.8790621 C18.2927865,13.0505273 18.2927865,14.9494727 17.1216406,16.1209379 C16.2637179,16.9790947 14.9732934,17.2359205 13.852159,16.7716442 C12.7310246,16.3073678 12,15.2134337 12,14 C12,12.7865663 12.7310246,11.6926322 13.852159,11.2283558 C14.9732934,10.7640795 16.2637179,11.0209053 17.1216406,11.8790621 Z" transform="translate(63 4)"></path>
<path fill="#A4AAB0" fill-rule="nonzero" d="M33,69 L45,69 C45.2256185,70.9261538 45.5233073,72.5671224 45.8930664,73.9229058 C46.2628255,75.2786892 46.9651367,77.3043873 48,80 L30,80 C30.9994358,77.271365 31.6795302,75.245667 32.0402832,73.9229058 C32.4010362,72.6001447 32.7209418,70.9591761 33,69 Z"></path>
</g>
</svg>